<svg xmlns="http://www.w3.org/2000/svg" viewBox="0 0 649.32 102.27"><defs><style>.cls-1{font-size:91.17px;fill:#fff;font-family:Baumans-Regular, Baumans;}.cls-2{font-family:Bimini-Normal, Bimini;}.cls-3{fill:#e50c7e;}</style></defs><title>Asset 3ttt</title><g id="Layer_2" data-name="Layer 2"><g id="Layer_1-2" data-name="Layer 1"><text class="cls-1" transform="translate(169.95 80.39)">Infinity<tspan class="cls-2" x="271.78" y="0" xml:space="preserve"> Devz</tspan></text><path class="cls-3" d="M147.1,38.79,108.31,0,78.85,29.47l4.65,4.65L108.31,9.31l29.48,29.48-7.36,7.37L107.06,22.79,89.61,40.23l4.66,4.66L107.06,32.1l18.71,18.71L108.31,68.27,40,0,1.25,38.79,12,49.56l-12,12,38.79,38.78L68.15,71,63.5,66.35,38.79,91.05,9.31,61.58l7.36-7.37L40,77.58,57.39,60.24l-4.66-4.66L40,68.27,21.33,49.56,38.79,32.1l68.27,68.26,38.79-38.78L135.08,50.81ZM136.54,61.58,107.06,91.06,38.79,22.79,16.67,44.9l-6.11-6.11L40,9.31l68.27,68.27,22.12-22.11Z"/></g></g></svg>